<svg version="1.1" xmlns="http://www.w3.org/2000/svg" viewBox="0 0 380 714.2857142857142" width="1140" height="2142.8571428571427">
  <!-- svg-source:excalidraw -->
  
  <defs>
    <style class="style-fonts">
      @font-face {
        font-family: "Virgil";
        src: url("https://excalidraw.com/Virgil.woff2");
      }
      @font-face {
        font-family: "Cascadia";
        src: url("https://excalidraw.com/Cascadia.woff2");
      }
    </style>
  </defs>
  <rect x="0" y="0" width="380" height="714.2857142857142" fill="#ffffff"></rect><g stroke-linecap="round" transform="translate(10 10.000000000000028) rotate(0 180 347.1428571428571)"><path d="M7.86 8.16 C7.86 8.16, 7.86 8.16, 7.86 8.16 M7.86 8.16 C7.86 8.16, 7.86 8.16, 7.86 8.16 M4.85 36.01 C15.83 22.73, 24.69 5.27, 34.37 2.05 M4.85 36.01 C10.49 24.99, 20.85 18.76, 34.37 2.05 M4.46 60.85 C24.38 42.52, 42.37 21.68, 55.63 1.98 M4.46 60.85 C13.31 47.43, 27.59 36.08, 55.63 1.98 M4.72 84.93 C31.43 53.33, 66.79 19.62, 76.89 1.91 M4.72 84.93 C21.12 65.77, 34.97 46.82, 76.89 1.91 M4.99 109.01 C34.04 74.8, 58.73 48.23, 98.15 1.85 M4.99 109.01 C33.04 80.01, 60.61 48.88, 98.15 1.85 M4.6 133.85 C49.5 82.93, 92.62 28.26, 119.41 1.78 M4.6 133.85 C49.19 78.44, 92.15 27.44, 119.41 1.78 M4.87 157.93 C57.36 99.59, 103.4 38.05, 140.67 1.71 M4.87 157.93 C29.82 124.71, 59.02 91.9, 140.67 1.71 M4.48 182.77 C40.58 140.26, 74.67 104.75, 161.28 2.39 M4.48 182.77 C63.32 114.31, 125.36 42.58, 161.28 2.39 M4.74 206.85 C56.65 145.56, 115.47 80.07, 182.54 2.32 M4.74 206.85 C39.51 159.7, 78.21 117.94, 182.54 2.32 M5.01 230.93 C68.48 151.03, 135.94 78.13, 203.8 2.26 M5.01 230.93 C57.21 166.49, 112.44 101.09, 203.8 2.26 M4.62 255.77 C52.31 199.73, 104.57 139.44, 225.06 2.19 M4.62 255.77 C84.36 163.86, 168.29 69.18, 225.06 2.19 M4.89 279.85 C82.11 190.06, 157.69 100.62, 246.32 2.12 M4.89 279.85 C90.03 184.37, 174.1 86.95, 246.32 2.12 M4.5 304.69 C62.08 245.48, 113.73 183, 267.58 2.05 M4.5 304.69 C106.61 186.01, 211.16 65.52, 267.58 2.05 M4.76 328.77 C96.76 222.3, 188.67 117.8, 288.84 1.98 M4.76 328.77 C98.73 221.27, 193.95 114.81, 288.84 1.98 M5.03 352.85 C86.11 259.77, 169.14 168.8, 310.1 1.91 M5.03 352.85 C76.49 266.91, 148.41 182.73, 310.1 1.91 M4.64 377.69 C97.14 275.44, 185.22 172.78, 330.7 2.6 M4.64 377.69 C133.63 232.98, 260.5 86.76, 330.7 2.6 M4.91 401.77 C77.1 317.6, 151.44 234.6, 349.34 5.55 M4.91 401.77 C104.71 286.56, 203.07 173.92, 349.34 5.55 M4.52 426.6 C91.75 328.72, 181.1 229.72, 358.79 19.06 M4.52 426.6 C120.64 287.8, 241.65 149.94, 358.79 19.06 M4.78 450.69 C77.26 366.95, 148.6 283.27, 364.96 36.35 M4.78 450.69 C129.78 301.59, 259.57 153.05, 364.96 36.35 M5.05 474.77 C104.39 360.55, 203.95 246.05, 365.22 60.43 M5.05 474.77 C78.99 387.36, 156.8 298.66, 365.22 60.43 M4.66 499.6 C133.32 353.02, 259.72 204.53, 364.84 85.27 M4.66 499.6 C120.06 365.03, 235.21 232.71, 364.84 85.27 M4.93 523.69 C134.66 372.66, 266.83 220.26, 365.1 109.35 M4.93 523.69 C112.89 399.38, 218.99 276.29, 365.1 109.35 M4.54 548.52 C139.17 395.66, 272.37 242.68, 364.71 134.19 M4.54 548.52 C97.45 439.66, 194.21 329.73, 364.71 134.19 M4.8 572.6 C110.53 449.15, 215.62 326.18, 364.98 158.27 M4.8 572.6 C112.97 444.81, 222.95 317.07, 364.98 158.27 M5.07 596.69 C102.39 479.01, 205.48 359.95, 365.24 182.35 M5.07 596.69 C129.14 457.57, 250.27 318.29, 365.24 182.35 M4.68 621.52 C140.17 463.11, 277.5 301.65, 364.85 207.19 M4.68 621.52 C150.45 458.23, 293.19 294.72, 364.85 207.19 M4.94 645.6 C116.46 520.09, 225.56 393.7, 365.12 231.27 M4.94 645.6 C119.4 514.03, 230.02 385.93, 365.12 231.27 M6.52 668.18 C122.68 535.98, 237.16 404.13, 364.73 256.11 M6.52 668.18 C138.48 515.51, 269.63 365.62, 364.73 256.11 M12.69 685.47 C88.62 599.93, 163.31 512.47, 365 280.19 M12.69 685.47 C150.8 526.03, 288.11 367.39, 365 280.19 M22.8 698.23 C145.86 550.5, 272.98 407.91, 365.26 304.27 M22.8 698.23 C102.42 605.13, 182.32 513.05, 365.26 304.27 M40.78 701.93 C152.48 574.81, 263.16 446.22, 364.87 329.11 M40.78 701.93 C115.65 618.65, 190.34 533.92, 364.87 329.11 M62.04 701.86 C160.8 582.75, 265.95 464.94, 365.14 353.19 M62.04 701.86 C143.32 605.03, 227.1 508.88, 365.14 353.19 M83.3 701.79 C192.33 578.88, 303.09 453.68, 364.75 378.02 M83.3 701.79 C168.84 599.99, 256.69 499.64, 364.75 378.02 M104.56 701.72 C159.75 634.98, 215.24 573.22, 365.02 402.1 M104.56 701.72 C204.52 581.25, 306.15 463.32, 365.02 402.1 M125.82 701.66 C178.62 647.03, 225.29 590.83, 365.28 426.19 M125.82 701.66 C215.63 600.4, 300.82 499.84, 365.28 426.19 M147.08 701.59 C219.54 617.11, 289.56 534.56, 364.89 451.02 M147.08 701.59 C221.07 615.31, 294.55 530.9, 364.89 451.02 M167.69 702.27 C214.56 646.83, 258.52 593.2, 365.16 475.1 M167.69 702.27 C236.38 624.02, 305.48 543.01, 365.16 475.1 M188.95 702.2 C255.24 621.61, 322.68 543.4, 364.77 499.94 M188.95 702.2 C234.16 645.64, 281.75 589.9, 364.77 499.94 M210.21 702.13 C253.19 658.92, 288.58 616.2, 365.04 524.02 M210.21 702.13 C249.65 656.3, 291.13 608.42, 365.04 524.02 M231.47 702.07 C270.06 657.01, 308.38 618.51, 365.3 548.1 M231.47 702.07 C265.08 666.75, 294.36 633.71, 365.3 548.1 M252.73 702 C295.94 654.39, 335.58 598.3, 364.91 572.94 M252.73 702 C288.42 655.94, 326.79 611.54, 364.91 572.94 M273.99 701.93 C307.85 664.81, 347.61 616.33, 365.18 597.02 M273.99 701.93 C297.34 673.65, 320.01 643.9, 365.18 597.02 M295.25 701.86 C322.64 675.84, 351.81 643.22, 364.79 621.86 M295.25 701.86 C310.94 682.75, 331.74 659.4, 364.79 621.86 M316.51 701.79 C332.83 682.2, 353.93 658.27, 365.06 645.94 M316.51 701.79 C328.8 686.55, 340.02 672.83, 365.06 645.94 M344.33 694.17 C353.26 689.62, 354.72 680.39, 366.63 668.51 M344.33 694.17 C351.42 683.71, 357.02 675.97, 366.63 668.51" stroke="#fff" stroke-width="2" fill="none"></path><path d="M32 0 M32 0 C121.52 3.86, 208 3.22, 328 0 M32 0 C137.2 4.52, 242.13 4.95, 328 0 M328 0 C350.74 0.86, 360.29 14.13, 360 32 M328 0 C347.64 1.41, 356.5 10.92, 360 32 M360 32 C363.13 274.91, 361.56 515.95, 360 662.29 M360 32 C361.17 234.06, 360.7 435.03, 360 662.29 M360 662.29 C358 681.06, 347.13 698.15, 328 694.29 M360 662.29 C361.26 682.38, 351.31 693.41, 328 694.29 M328 694.29 C231.92 689.39, 131.87 691.74, 32 694.29 M328 694.29 C262.97 696.02, 198.61 698.2, 32 694.29 M32 694.29 C13.77 691.55, 3.82 681.66, 0 662.29 M32 694.29 C8.2 696.34, -1.15 684.35, 0 662.29 M0 662.29 C3.5 505.2, 4.27 348.14, 0 32 M0 662.29 C-0.77 495.32, -1.79 327.33, 0 32 M0 32 C2.93 14.31, 14.47 -2.4, 32 0 M0 32 C-1.77 6.86, 10.28 -2.78, 32 0" stroke="#000000" stroke-width="4" fill="none"></path></g></svg>