<svg version="1.1" xmlns="http://www.w3.org/2000/svg" viewBox="0 0 368.02661887665386 425.42834378289496" width="1104.0798566299616" height="1276.285031348685">
  <!-- svg-source:excalidraw -->
  
  <defs>
    <style class="style-fonts">
      @font-face {
        font-family: "Virgil";
        src: url("https://excalidraw.com/Virgil.woff2");
      }
      @font-face {
        font-family: "Cascadia";
        src: url("https://excalidraw.com/Cascadia.woff2");
      }
    </style>
  </defs>
  <g stroke-linecap="round"><g transform="translate(27.417763576369907 123.89234850265211) rotate(0 40.61478603418385 -14.388097802443156)"><path d="M-1.31 -1.05 C15.02 -3.01, 37.95 -13.22, 81.61 -30.08 M-1.25 1.31 C30.81 -7.17, 59.07 -21.4, 82.54 -29.42" stroke="#000000" stroke-width="4" fill="none"></path></g></g><mask></mask><g stroke-linecap="round"><g transform="translate(10 136.30632252709012) rotate(0 174.01330943832693 76.40784936435736)" fill-rule="evenodd"><path d="M0 0 L176.47 -64.4 L348.03 -126.31 L347.22 261.45 L327.96 279.12 L22.87 273.69 L2.94 248.08 L0 0" stroke="none" stroke-width="0" fill="#fff" fill-rule="evenodd"></path><path d="M0 0 C41.34 -15.09, 82.69 -30.17, 176.47 -64.4 M0 0 C68.11 -24.85, 136.22 -49.71, 176.47 -64.4 M176.47 -64.4 C237.33 -86.36, 298.19 -108.32, 348.03 -126.31 M176.47 -64.4 C212.53 -77.41, 248.59 -90.43, 348.03 -126.31 M348.03 -126.31 C347.83 -32.59, 347.63 61.12, 347.22 261.45 M348.03 -126.31 C347.72 18.07, 347.42 162.45, 347.22 261.45 M347.22 261.45 C343.31 265.03, 339.41 268.61, 327.96 279.12 M347.22 261.45 C340.27 267.82, 333.33 274.19, 327.96 279.12 M327.96 279.12 C252.45 277.78, 176.94 276.43, 22.87 273.69 M327.96 279.12 C244.72 277.64, 161.47 276.16, 22.87 273.69 M22.87 273.69 C17.62 266.94, 12.36 260.19, 2.94 248.08 M22.87 273.69 C18.03 267.47, 13.19 261.25, 2.94 248.08 M2.94 248.08 C1.79 151.18, 0.64 54.27, 0 0 M2.94 248.08 C2.16 182.53, 1.39 116.97, 0 0 M0 0 C0 0, 0 0, 0 0 M0 0 C0 0, 0 0, 0 0" stroke="transparent" stroke-width="4" fill="none"></path></g></g><mask></mask><g stroke-linecap="round"><g transform="translate(144.28851456655764 85.12956642076426) rotate(0 40.25758970315968 -13.458867350859293)"><path d="M-1.65 3.56 C26.97 -9.72, 50.84 -17.71, 80.25 -25.64 M0.89 1.19 C32.26 -13.53, 63.61 -24.08, 82.16 -30.48" stroke="#000000" stroke-width="4" fill="none"></path></g></g><mask></mask><g stroke-linecap="round"><g transform="translate(259.7134639562345 43.15685755179112) rotate(0 39.936204818742624 -13.923374222857603)"><path d="M2.29 3.37 C19.88 -10.65, 36.27 -16.07, 81.52 -31.21 M-1.95 0.05 C19.71 -6.44, 35.23 -14.03, 81.82 -30.11" stroke="#000000" stroke-width="4" fill="none"></path></g></g><mask></mask></svg>