<svg version="1.1" xmlns="http://www.w3.org/2000/svg" viewBox="0 0 373.29173141027013 293.6691733215775" width="1119.8751942308104" height="881.0075199647324">
  <!-- svg-source:excalidraw -->
  
  <defs>
    <style class="style-fonts">
      @font-face {
        font-family: "Virgil";
        src: url("https://excalidraw.com/Virgil.woff2");
      }
      @font-face {
        font-family: "Cascadia";
        src: url("https://excalidraw.com/Cascadia.woff2");
      }
    </style>
  </defs>
  <g stroke-linecap="round"><g transform="translate(78.7000243412025 117.63168893413098) rotate(0 39.01422608430897 -13.864112893385538)"><path d="M-2.5 -0.15 C27.53 -7.03, 46.3 -20.34, 80.05 -26.71 M1.05 -1.75 C26.71 -10.6, 58.35 -17.26, 80.53 -27.57" stroke="#000000" stroke-width="4" fill="none"></path></g></g><mask></mask><g stroke-linecap="round"><g transform="translate(10 143.24293384546758) rotate(0 176.64586570513507 3.5916528153211686)" fill-rule="evenodd"><path d="M0 0 L161.78 -57.05 L353.29 -133.24 L345.12 127.14 L325.86 139.56 L19.72 140.43 L0.84 125.31 L0 0" stroke="none" stroke-width="0" fill="#fff" fill-rule="evenodd"></path><path d="M0 0 C62.36 -21.99, 124.72 -43.98, 161.78 -57.05 M0 0 C38.38 -13.54, 76.76 -27.07, 161.78 -57.05 M161.78 -57.05 C210.42 -76.4, 259.05 -95.75, 353.29 -133.24 M161.78 -57.05 C235.91 -86.54, 310.04 -116.03, 353.29 -133.24 M353.29 -133.24 C350.98 -59.51, 348.66 14.21, 345.12 127.14 M353.29 -133.24 C350.06 -30.36, 346.83 72.53, 345.12 127.14 M345.12 127.14 C339.64 130.68, 334.16 134.21, 325.86 139.56 M345.12 127.14 C339.86 130.53, 334.61 133.92, 325.86 139.56 M325.86 139.56 C255.47 139.76, 185.08 139.96, 19.72 140.43 M325.86 139.56 C215.85 139.87, 105.84 140.18, 19.72 140.43 M19.72 140.43 C14.51 136.25, 9.3 132.08, 0.84 125.31 M19.72 140.43 C14.14 135.96, 8.56 131.49, 0.84 125.31 M0.84 125.31 C0.51 76.43, 0.19 27.56, 0 0 M0.84 125.31 C0.67 100.25, 0.51 75.18, 0 0 M0 0 C0 0, 0 0, 0 0 M0 0 C0 0, 0 0, 0 0" stroke="transparent" stroke-width="1" fill="none"></path></g></g><mask></mask><g stroke-linecap="round"><g transform="translate(227.71296647531915 58.93195495272016) rotate(0 39.325175886707655 -14.225209804517874)"><path d="M-1.86 -1.98 C22.23 -7.76, 49.63 -17.3, 78.92 -26.46 M1.87 1.58 C16.82 -3.7, 33.72 -12.46, 80.51 -30.03" stroke="#000000" stroke-width="4" fill="none"></path></g></g><mask></mask></svg>