<svg version="1.1" xmlns="http://www.w3.org/2000/svg" viewBox="0 0 367.1848761625148 544.0012463377445" width="1101.5546284875445" height="1632.0037390132336">
  <!-- svg-source:excalidraw -->
  
  <defs>
    <style class="style-fonts">
      @font-face {
        font-family: "Virgil";
        src: url("https://excalidraw.com/Virgil.woff2");
      }
      @font-face {
        font-family: "Cascadia";
        src: url("https://excalidraw.com/Cascadia.woff2");
      }
    </style>
  </defs>
  <g stroke-linecap="round"><g transform="translate(54.907599348787926 120.84303078092779) rotate(0 41.794982967632166 -14.57228635464395)"><path d="M1.29 2.56 C24.37 -4.25, 39.39 -13.45, 82.35 -31.71 M0.9 0.15 C30.03 -10.75, 55.49 -20.93, 82.69 -28.05" stroke="#000000" stroke-width="4" fill="none"></path></g></g><mask></mask><g stroke-linecap="round"><g transform="translate(10.207575007585433 139.45427569226314) rotate(0 173.38486307367197 132.54634747660913)" fill-rule="evenodd"><path d="M0 0 L161.78 -57.05 L346.98 -129.45 L344.07 372.68 L331.11 394.55 L21.82 393.31 L-0.21 375.05 L0 0" stroke="none" stroke-width="0" fill="#fff" fill-rule="evenodd"></path><path d="M0 0 C56.07 -19.78, 112.15 -39.55, 161.78 -57.05 M0 0 C62.17 -21.92, 124.33 -43.85, 161.78 -57.05 M161.78 -57.05 C219.62 -79.67, 277.47 -102.28, 346.98 -129.45 M161.78 -57.05 C212.03 -76.7, 262.29 -96.35, 346.98 -129.45 M346.98 -129.45 C346.02 35.9, 345.06 201.25, 344.07 372.68 M346.98 -129.45 C346.35 -20.79, 345.72 87.87, 344.07 372.68 M344.07 372.68 C340.7 378.36, 337.33 384.04, 331.11 394.55 M344.07 372.68 C341.25 377.44, 338.43 382.2, 331.11 394.55 M331.11 394.55 C253.35 394.24, 175.59 393.93, 21.82 393.31 M331.11 394.55 C245.91 394.21, 160.71 393.87, 21.82 393.31 M21.82 393.31 C13.85 386.71, 5.89 380.1, -0.21 375.05 M21.82 393.31 C13.72 386.59, 5.61 379.87, -0.21 375.05 M-0.21 375.05 C-0.13 231.24, -0.05 87.43, 0 0 M-0.21 375.05 C-0.16 290.53, -0.11 206.01, 0 0 M0 0 C0 0, 0 0, 0 0 M0 0 C0 0, 0 0, 0 0" stroke="transparent" stroke-width="4" fill="none"></path></g></g><mask></mask><g stroke-linecap="round"><g transform="translate(208.81402249518692 63.93229553386706) rotate(0 41.64017767991339 -14.397507945341715)"><path d="M-1.52 1.67 C30.01 -15.04, 60.57 -25.79, 84.8 -26.78 M-1.31 0.2 C25.93 -8.68, 50.23 -16.96, 81.68 -30.46" stroke="#000000" stroke-width="4" fill="none"></path></g></g><mask></mask></svg>