<svg version="1.1" xmlns="http://www.w3.org/2000/svg" viewBox="0 0 385.07731654672034 664.8032040473646" width="1155.231949640161" height="1994.409612142094">
  <!-- svg-source:excalidraw -->
  
  <defs>
    <style class="style-fonts">
      @font-face {
        font-family: "Virgil";
        src: url("https://excalidraw.com/Virgil.woff2");
      }
      @font-face {
        font-family: "Cascadia";
        src: url("https://excalidraw.com/Cascadia.woff2");
      }
    </style>
  </defs>
  <rect x="0" y="0" width="385.07731654672034" height="664.8032040473646" fill="#0000"></rect><g stroke-linecap="round"><g transform="translate(10.958114782085431 141.93338911044978) rotate(0 181.58054349127474 -66.56334128300394)"><path d="M-0.96 -2.12 C107.46 -50.33, 207.27 -91.99, 296.96 -128.63 M0.11 -1.19 C104.65 -51.21, 206.05 -96.22, 293.42 -131.93 M295.05 -128.09 C324.67 -117.94, 351.73 -108.22, 361.88 -99.63 M293.24 -130.57 C317.77 -121.68, 342.11 -112.17, 364.12 -102.76" stroke="#000000" stroke-width="4" fill="none"></path></g></g><mask></mask><g stroke-linecap="round"><g transform="translate(12.386686210656876 461.219103396164) rotate(0 126.45424367785279 95.46082968934135)"><path d="M1.86 -2.66 C94.18 70.95, 181.28 142.57, 252.59 193.58 M0.32 -0.21 C82.73 66.75, 167.12 130.76, 249.61 192.92" stroke="#000000" stroke-width="4" fill="none"></path></g></g><mask></mask></svg>